PathFileType	4	(X/Y/Z)	./trials/Ivanov/data/jump_js_1.trc
DataRate	CameraRate	NumFrames	NumMarkers	Units	OrigDataRate	OrigDataStartFrame	OrigNumFrames
400	400	5	71	mm	400	183	364
Frame#	Time	r_illiac			r_troch			r_asis			l_illiac			l_troch			l_asis			r_psis			sacrum			l_psis			r_thigh1			r_thigh2			r_thigh3			r_thigh4			rl_knee			rm_knee			r_shank1			r_shank2			r_shank3			r_shank4			r_heel			rl_ankle			rm_ankle			r_metatarsal5			r_metatarsal1			l_thigh1			l_thigh2			l_thigh3			l_thigh4			ll_knee			lm_knee			l_shank1			l_shank2			l_shank3			l_shank4			l_heel			ll_ankle			lm_ankle			l_metatarsal5			l_metatarsal1			back_down			neck			back_right			back_left			head_up			head_front			head_left			head_right			r_shoulder			r_humerus1			r_humerus2			r_humerus3			rl_elbow			rm_elbow			r_radius1			r_radius2			r_radius3			rl_wrist			rm_wrist			r_hand			l_shoulder			l_humerus1			l_humerus2			l_humerus3			ll_elbow			lm_elbow			l_radius1			l_radius2			l_radius3			ll_wrist			lm_wrist			l_hand		
		X1	Y1	Z1	X2	Y2	Z2	X3	Y3	Z3	X4	Y4	Z4	X5	Y5	Z5	X6	Y6	Z6	X7	Y7	Z7	X8	Y8	Z8	X9	Y9	Z9	X10	Y10	Z10	X11	Y11	Z11	X12	Y12	Z12	X13	Y13	Z13	X14	Y14	Z14	X15	Y15	Z15	X16	Y16	Z16	X17	Y17	Z17	X18	Y18	Z18	X19	Y19	Z19	X20	Y20	Z20	X21	Y21	Z21	X22	Y22	Z22	X23	Y23	Z23	X24	Y24	Z24	X25	Y25	Z25	X26	Y26	Z26	X27	Y27	Z27	X28	Y28	Z28	X29	Y29	Z29	X30	Y30	Z30	X31	Y31	Z31	X32	Y32	Z32	X33	Y33	Z33	X34	Y34	Z34	X35	Y35	Z35	X36	Y36	Z36	X37	Y37	Z37	X38	Y38	Z38	X39	Y39	Z39	X40	Y40	Z40	X41	Y41	Z41	X42	Y42	Z42	X43	Y43	Z43	X44	Y44	Z44	X45	Y45	Z45	X46	Y46	Z46	X47	Y47	Z47	X48	Y48	Z48	X49	Y49	Z49	X50	Y50	Z50	X51	Y51	Z51	X52	Y52	Z52	X53	Y53	Z53	X54	Y54	Z54	X55	Y55	Z55	X56	Y56	Z56	X57	Y57	Z57	X58	Y58	Z58	X59	Y59	Z59	X60	Y60	Z60	X61	Y61	Z61	X62	Y62	Z62	X63	Y63	Z63	X64	Y64	Z64	X65	Y65	Z65	X66	Y66	Z66	X67	Y67	Z67	X68	Y68	Z68	X69	Y69	Z69	X70	Y70	Z70	X71	Y71	Z71
183	0.4550	-344.224	902.779	558.217	-391.324	731.182	594.237	-300.814	825.963	522.408	-364.318	895.631	223.183	-392.498	776.294	188.103	-315.812	827.597	264.842	-473.857	920.697	455.842	-458.107	956.729	395.627	-483.044	921.418	341.213	-326.448	627.056	586.198	-273.351	680.049	603.721	-193.855	584.132	613.566	-240.286	537.028	595.410	-91.122	439.056	596.980	-106.308	427.619	463.382	-193.934	354.082	606.519	-132.955	317.656	598.181	-198.500	227.719	592.899	-246.599	262.221	601.288	-402.269	87.150	532.752	-347.890	107.954	574.244	-320.750	99.952	483.143	-195.391	32.809	603.575	-185.840	37.669	510.286	-319.076	633.988	187.061	-263.034	684.700	183.442	-184.012	592.209	164.314	-226.860	548.686	167.280	-127.173	446.687	162.916	-107.134	407.663	288.947	-212.226	333.548	150.923	-145.612	298.564	174.240	-207.717	209.854	183.817	-260.252	236.300	167.020	-415.045	78.888	223.943	-352.473	104.107	185.786	-322.638	104.814	281.896	-205.581	33.630	163.207	-189.655	36.249	239.933	-337.791	1063.956	387.284	-92.223	1264.773	366.021	-216.019	1183.677	461.683	-218.471	1172.610	290.105	11.682	1455.265	363.195	148.869	1384.654	343.281	37.050	1349.880	261.799	59.136	1365.636	457.256	3.066	1211.775	539.745	-93.489	1057.495	636.613	-111.374	1172.559	696.107	-155.148	1080.299	718.608	-200.597	1040.833	752.556	-280.613	1086.059	690.655	-241.160	952.930	649.816	-273.725	948.345	775.922	-305.534	891.739	695.083	-394.234	887.910	617.536	-342.814	824.022	667.833	-332.413	839.357	616.671	11.434	1222.072	212.696	-76.845	1043.397	139.269	-91.548	1133.066	44.298	-136.796	1040.717	54.110	-198.807	992.545	7.670	-271.730	1061.115	57.335	-261.329	997.693	124.653	-218.838	911.997	50.804	-294.272	902.449	116.389	-378.348	881.906	178.126	-362.282	808.333	124.942	-334.987	836.157	173.501
184	0.4575	-342.624	907.695	557.995	-389.247	735.335	593.722	-298.311	830.851	522.173	-362.855	900.143	223.132	-391.085	780.099	187.874	-314.129	832.414	264.715	-471.976	924.787	455.767	-456.584	960.810	395.507	-481.220	925.285	341.194	-325.363	630.381	586.050	-271.868	682.930	603.777	-193.347	586.130	613.703	-240.084	539.578	595.384	-91.766	440.100	597.165	-106.672	428.422	463.579	-194.553	354.658	606.716	-133.525	318.462	598.433	-198.749	228.335	593.043	-246.842	262.420	601.442	-402.108	87.433	532.770	-347.795	108.141	574.199	-320.654	100.178	483.196	-195.360	32.805	603.608	-185.775	37.705	510.307	-318.093	636.759	187.054	-261.585	686.923	182.933	-183.368	593.845	163.842	-226.625	550.475	167.167	-127.726	447.586	162.481	-107.316	408.458	288.558	-212.806	334.007	150.732	-146.095	299.269	174.007	-207.888	210.368	183.639	-260.515	236.669	166.884	-414.846	79.085	224.191	-352.439	104.469	185.705	-322.522	104.983	281.921	-205.552	33.579	163.191	-189.518	36.322	239.860	-337.468	1068.949	387.231	-94.114	1272.767	365.975	-217.112	1190.035	461.480	-219.244	1179.193	290.098	8.158	1464.113	362.742	146.119	1394.757	343.255	34.729	1358.896	261.743	56.350	1375.430	457.217	1.932	1221.459	539.285	-93.523	1066.200	636.131	-112.692	1180.830	695.748	-156.200	1088.302	717.915	-200.875	1048.384	751.786	-280.982	1092.339	689.350	-240.418	959.248	649.405	-273.181	955.251	775.406	-304.320	897.748	694.868	-392.511	892.218	616.391	-340.921	829.472	667.973	-330.514	844.139	616.732	10.177	1231.434	212.768	-76.815	1051.795	139.869	-92.363	1140.909	44.465	-137.071	1048.368	54.948	-198.554	999.684	8.456	-271.998	1067.512	58.475	-261.723	1003.933	125.556	-217.799	918.739	51.173	-293.349	908.058	116.593	-377.021	886.303	178.221	-360.559	813.228	124.430	-333.512	840.603	173.104
185	0.4600	-341.250	912.753	557.657	-387.293	739.629	593.178	-295.842	835.769	522.025	-361.271	904.818	223.025	-390.119	784.517	187.188	-312.309	837.068	264.603	-470.193	928.974	455.603	-455.044	964.894	395.414	-479.314	929.264	341.153	-324.278	633.767	585.903	-270.239	685.864	603.856	-192.725	588.241	613.786	-239.916	542.238	595.331	-92.461	441.206	597.351	-107.809	429.093	463.868	-195.214	355.382	606.890	-134.142	319.243	598.658	-199.140	229.055	593.222	-247.400	262.806	601.495	-401.957	87.677	532.769	-347.693	108.324	574.146	-320.569	100.466	483.257	-195.346	32.769	603.610	-185.737	37.718	510.351	-317.075	639.433	187.057	-260.191	689.258	182.470	-182.827	595.360	163.382	-226.449	552.448	167.109	-128.391	448.603	162.093	-107.635	409.389	288.142	-213.518	334.523	150.595	-146.600	300.162	173.709	-208.064	210.936	183.487	-260.826	237.154	166.649	-414.672	79.485	224.328	-352.285	104.630	185.705	-322.377	105.213	281.951	-205.498	33.567	163.194	-189.383	36.362	239.820	-337.220	1074.081	387.195	-96.024	1280.867	365.898	-218.188	1196.517	461.219	-220.068	1185.879	290.051	4.663	1473.135	362.352	143.480	1404.913	343.315	32.663	1367.734	261.891	53.655	1385.060	457.114	0.489	1231.051	539.034	-93.506	1074.807	635.632	-114.058	1189.120	695.393	-156.785	1096.211	717.132	-201.137	1055.734	751.013	-281.091	1097.892	688.575	-239.604	965.713	648.980	-272.565	962.107	774.860	-303.089	903.929	694.629	-391.500	897.112	615.783	-339.041	835.011	668.111	-328.559	849.007	616.752	8.777	1241.103	212.983	-76.927	1060.610	140.419	-93.182	1148.928	44.630	-137.235	1056.206	55.749	-198.247	1006.714	9.235	-272.153	1073.901	59.701	-261.810	1010.045	126.552	-216.674	925.566	51.441	-292.272	913.703	116.730	-375.577	890.816	178.341	-358.985	818.128	123.962	-331.974	845.113	172.669
186	0.4625	-340.078	917.886	557.459	-385.261	743.918	592.663	-293.454	840.822	521.898	-359.522	909.449	222.908	-389.151	789.082	186.602	-310.569	841.843	264.428	-468.335	933.214	455.479	-453.449	969.138	395.301	-477.350	933.208	341.184	-323.307	637.432	585.821	-268.315	689.046	604.123	-192.292	590.535	613.926	-239.898	544.926	595.284	-93.292	442.313	597.526	-108.397	430.191	464.158	-196.130	356.020	607.011	-134.853	320.101	598.848	-199.516	229.563	593.324	-247.362	263.994	601.772	-401.814	87.944	532.779	-347.609	108.538	574.097	-320.533	100.796	483.369	-195.317	32.664	603.655	-185.704	37.725	510.373	-316.131	642.253	187.049	-258.802	691.483	182.018	-182.317	596.862	162.968	-226.328	554.364	167.036	-129.082	449.544	161.765	-108.083	410.299	287.733	-214.269	335.080	150.415	-147.197	300.997	173.465	-208.279	211.694	183.245	-261.097	237.600	166.565	-414.574	79.950	224.381	-352.038	104.743	185.824	-322.280	105.479	281.983	-205.450	33.534	163.207	-189.296	36.400	239.804	-336.956	1079.389	387.147	-98.006	1289.073	365.870	-219.274	1203.127	461.099	-220.976	1192.632	290.081	1.416	1482.129	361.939	140.813	1415.065	343.404	30.454	1376.854	261.867	51.002	1394.757	457.076	-0.801	1240.894	538.654	-93.500	1083.405	635.072	-115.417	1197.561	695.031	-157.386	1104.074	716.308	-201.341	1063.311	750.226	-281.465	1104.400	687.308	-238.723	972.094	648.568	-271.999	969.162	774.379	-301.714	910.247	694.445	-390.007	902.073	615.278	-337.226	840.639	668.285	-326.613	853.894	616.768	7.367	1250.775	213.160	-76.979	1069.368	141.114	-94.027	1157.085	44.807	-137.430	1064.142	56.627	-197.968	1013.955	9.984	-272.321	1080.434	60.822	-261.767	1016.173	127.509	-215.579	932.336	51.828	-291.125	919.416	116.877	-374.039	895.301	178.428	-357.863	823.127	123.564	-331.470	849.341	172.155
187	0.4650	-336.101	922.438	557.629	-383.263	748.280	592.158	-290.857	845.919	521.738	-357.089	914.095	222.983	-388.228	793.407	186.114	-308.574	846.841	264.199	-466.366	937.557	455.334	-451.770	973.461	395.204	-475.409	937.333	341.145	-322.340	641.002	585.665	-266.861	692.200	604.256	-191.882	592.728	614.046	-239.886	547.679	595.201	-94.202	443.460	597.723	-108.954	431.142	464.396	-197.049	356.697	607.127	-135.611	321.043	599.048	-199.982	230.321	593.474	-248.118	264.620	601.753	-401.632	88.044	532.766	-347.507	108.768	574.032	-320.433	101.022	483.405	-195.282	32.635	603.668	-185.658	37.748	510.411	-315.091	645.159	186.995	-257.415	693.906	181.558	-181.818	598.425	162.515	-226.259	556.269	167.105	-129.843	450.640	161.418	-108.057	411.397	287.348	-215.021	335.741	150.227	-147.834	301.860	173.226	-208.606	212.338	183.142	-261.461	237.901	166.559	-414.386	80.250	224.447	-351.909	104.979	185.845	-322.120	105.693	281.999	-205.397	33.504	163.201	-189.205	36.358	239.800	-336.755	1084.655	387.116	-99.971	1297.357	365.820	-220.312	1209.696	460.958	-221.880	1199.448	290.079	-1.788	1491.253	361.519	138.232	1425.104	343.491	28.278	1386.016	261.863	48.283	1404.464	457.043	-2.052	1250.692	538.263	-93.450	1092.195	634.545	-116.698	1205.971	694.670	-157.873	1112.129	715.561	-201.708	1070.850	749.372	-282.055	1111.156	685.993	-237.863	978.718	648.160	-271.398	976.199	773.893	-300.457	916.563	694.251	-385.271	907.398	615.592	-334.558	846.396	668.420	-324.414	859.143	616.773	5.849	1260.586	213.364	-77.000	1078.114	141.814	-94.857	1165.236	44.911	-137.613	1072.005	57.511	-197.690	1021.302	10.764	-272.101	1086.850	62.016	-259.644	1021.615	129.029	-214.514	939.252	52.130	-289.033	924.788	116.939	-372.393	900.035	178.708	-356.028	828.483	123.049	-329.857	854.043	171.709
